<?xml version="1.0" encoding="UTF-8" standalone="no"?>
<!DOCTYPE svg PUBLIC "-//W3C//DTD SVG 1.1//EN"
 "http://www.w3.org/Graphics/SVG/1.1/DTD/svg11.dtd">
<!-- Generated by graphviz version 2.38.0 (20140413.2041)
 -->
<!-- Title: G Pages: 1 -->
<svg width="227pt" height="260pt"
 viewBox="0.00 0.00 227.00 260.00" xmlns="http://www.w3.org/2000/svg" xmlns:xlink="http://www.w3.org/1999/xlink">
<g id="graph0" class="graph" transform="scale(1 1) rotate(0) translate(4 256)">
<title>G</title>
<polygon fill="white" stroke="none" points="-4,4 -4,-256 223,-256 223,4 -4,4"/>
<!-- d -->
<g id="node1" class="node"><title>d</title>
<ellipse fill="none" stroke="black" cx="27" cy="-234" rx="27" ry="18"/>
<text text-anchor="middle" x="27" y="-230.3" font-family="Times,serif" font-size="14.00">d</text>
</g>
<!-- g -->
<g id="node2" class="node"><title>g</title>
<ellipse fill="none" stroke="black" cx="27" cy="-18" rx="27" ry="18"/>
<text text-anchor="middle" x="27" y="-14.3" font-family="Times,serif" font-size="14.00">g</text>
</g>
<!-- d&#45;&gt;g -->
<g id="edge1" class="edge"><title>d&#45;&gt;g</title>
<path fill="none" stroke="black" d="M27,-215.849C27,-178.832 27,-91.1809 27,-46.3863"/>
<polygon fill="black" stroke="black" points="30.5001,-46.2324 27,-36.2325 23.5001,-46.2325 30.5001,-46.2324"/>
</g>
<!-- f -->
<g id="node3" class="node"><title>f</title>
<ellipse fill="none" stroke="black" cx="137" cy="-234" rx="27" ry="18"/>
<text text-anchor="middle" x="137" y="-230.3" font-family="Times,serif" font-size="14.00">f</text>
</g>
<!-- b -->
<g id="node4" class="node"><title>b</title>
<ellipse fill="none" stroke="black" cx="192" cy="-162" rx="27" ry="18"/>
<text text-anchor="middle" x="192" y="-158.3" font-family="Times,serif" font-size="14.00">b</text>
</g>
<!-- f&#45;&gt;b -->
<g id="edge2" class="edge"><title>f&#45;&gt;b</title>
<path fill="none" stroke="black" d="M148.934,-217.811C156.214,-208.546 165.663,-196.52 173.854,-186.094"/>
<polygon fill="black" stroke="black" points="176.663,-188.185 180.089,-178.159 171.159,-183.86 176.663,-188.185"/>
</g>
<!-- c -->
<g id="node5" class="node"><title>c</title>
<ellipse fill="none" stroke="black" cx="82" cy="-162" rx="27" ry="18"/>
<text text-anchor="middle" x="82" y="-158.3" font-family="Times,serif" font-size="14.00">c</text>
</g>
<!-- f&#45;&gt;c -->
<g id="edge3" class="edge"><title>f&#45;&gt;c</title>
<path fill="none" stroke="black" d="M125.066,-217.811C117.786,-208.546 108.337,-196.52 100.146,-186.094"/>
<polygon fill="black" stroke="black" points="102.841,-183.86 93.9109,-178.159 97.337,-188.185 102.841,-183.86"/>
</g>
<!-- a -->
<g id="node6" class="node"><title>a</title>
<ellipse fill="none" stroke="black" cx="137" cy="-90" rx="27" ry="18"/>
<text text-anchor="middle" x="137" y="-86.3" font-family="Times,serif" font-size="14.00">a</text>
</g>
<!-- f&#45;&gt;a -->
<g id="edge4" class="edge"><title>f&#45;&gt;a</title>
<path fill="none" stroke="black" d="M137,-215.871C137,-191.67 137,-147.211 137,-118.393"/>
<polygon fill="black" stroke="black" points="140.5,-118.189 137,-108.189 133.5,-118.189 140.5,-118.189"/>
</g>
<!-- b&#45;&gt;a -->
<g id="edge5" class="edge"><title>b&#45;&gt;a</title>
<path fill="none" stroke="black" d="M180.066,-145.811C172.786,-136.546 163.337,-124.52 155.146,-114.094"/>
<polygon fill="black" stroke="black" points="157.841,-111.86 148.911,-106.159 152.337,-116.185 157.841,-111.86"/>
</g>
<!-- e -->
<g id="node7" class="node"><title>e</title>
<ellipse fill="none" stroke="black" cx="164" cy="-18" rx="27" ry="18"/>
<text text-anchor="middle" x="164" y="-14.3" font-family="Times,serif" font-size="14.00">e</text>
</g>
<!-- b&#45;&gt;e -->
<g id="edge8" class="edge"><title>b&#45;&gt;e</title>
<path fill="none" stroke="black" d="M188.623,-143.871C183.829,-119.564 175.007,-74.8187 169.327,-46.0132"/>
<polygon fill="black" stroke="black" points="172.758,-45.3232 167.389,-36.1893 165.89,-46.6775 172.758,-45.3232"/>
</g>
<!-- c&#45;&gt;a -->
<g id="edge6" class="edge"><title>c&#45;&gt;a</title>
<path fill="none" stroke="black" d="M93.9342,-145.811C101.214,-136.546 110.663,-124.52 118.854,-114.094"/>
<polygon fill="black" stroke="black" points="121.663,-116.185 125.089,-106.159 116.159,-111.86 121.663,-116.185"/>
</g>
<!-- a&#45;&gt;e -->
<g id="edge7" class="edge"><title>a&#45;&gt;e</title>
<path fill="none" stroke="black" d="M143.399,-72.411C146.514,-64.3352 150.334,-54.4312 153.835,-45.3547"/>
<polygon fill="black" stroke="black" points="157.126,-46.5458 157.46,-35.9562 150.595,-44.0267 157.126,-46.5458"/>
</g>
</g>
</svg>
